#!OML:ASF F:\VICON\USERDATA\INSTALL\rory3\rory3.ASF
:FULLY-SPECIFIED
:DEGREES
1925
root -1.057 16.7758 -1.67839 9.88387 0.682324 -716.054
lowerback 30.0094 -1.09599 3.97556
upperback 10.8075 0.16825 5.92989
thorax -4.27892 0.0383141 4.25469
lowerneck -20.9492 -0.717317 -7.62146
upperneck 24.309 1.88229 -1.05502
head 11.3697 -0.00242627 1.17696
rclavicle 1.74931e-014 -3.81667e-014
rhumerus -29.1293 28.0907 -78.968
rradius 86.6578
rwrist 20.407
rhand -42.6355 10.7036
rfingers 7.12502
rthumb -15.5073 -18.6945
lclavicle 1.74931e-014 -3.81667e-014
lhumerus -39.7006 -25.2308 99.6601
lradius 93.9167
lwrist -28.498
lhand -57.7099 23.577
lfingers 7.12502
lthumb -29.9691 51.1699
rfemur -49.5225 -15.0111 25.3491
rtibia 48.4898
rfoot -7.05066 -1.41678
rtoes 8.16105
lfemur -94.3469 15.0183 -32.4693
ltibia 133.788
lfoot -16.4358 -6.22092
ltoes -10.6685
1926
root -1.08275 16.7983 -1.59859 10.0675 0.777953 -715.922
lowerback 29.9463 -1.07818 3.93418
upperback 10.8234 0.175179 5.93295
thorax -4.23282 0.0417851 4.27769
lowerneck -20.9045 -0.660329 -7.58627
upperneck 24.2962 1.99218 -1.2196
head 11.3562 0.0299012 1.12744
rclavicle -3.49861e-014 -7.15625e-014
rhumerus -29.2058 28.1317 -79.0271
rradius 86.4633
rwrist 20.232
rhand -42.3412 11.0333
rfingers 7.12502
rthumb -15.2238 -18.3865
lclavicle -3.49861e-014 -7.15625e-014
lhumerus -39.3754 -25.3815 99.5791
lradius 93.5413
lwrist -28.3441
lhand -57.3468 23.5973
lfingers 7.12502
lthumb -29.6226 51.2522
rfemur -49.3195 -15.1869 25.3558
rtibia 48.3172
rfoot -7.37638 -1.31506
rtoes 7.78294
lfemur -93.7512 14.8667 -32.2001
ltibia 133.601
lfoot -16.4469 -6.44805
ltoes -10.4593
1927
root -1.10663 16.8231 -1.5179 10.3066 0.830982 -715.835
lowerback 29.6949 -1.06037 3.988
upperback 10.8522 0.187052 5.87653
thorax -4.08544 0.0509763 4.17163
lowerneck -20.8731 -0.611267 -7.51467
upperneck 24.3367 2.05886 -1.3011
head 11.3651 0.0550301 1.09624
rclavicle 9.54166e-015 6.36111e-014
rhumerus -29.2561 28.0511 -79.1737
rradius 86.1497
rwrist 20.5676
rhand -42.1433 11.0135
rfingers 7.12502
rthumb -15.0332 -18.4207
lclavicle 9.54166e-015 6.36111e-014
lhumerus -39.0488 -25.6393 99.4096
lradius 93.1515
lwrist -28.1506
lhand -57.0005 23.6219
lfingers 7.12502
lthumb -29.2919 51.3351
rfemur -49.2163 -15.2687 25.3833
rtibia 48.1781
rfoot -7.73722 -1.28635
rtoes 8.56642
lfemur -93.2258 14.7596 -31.9508
ltibia 133.412
lfoot -16.433 -6.63733
ltoes -10.6889
1928
root -1.12869 16.8516 -1.43698 10.5432 0.743393 -715.753
lowerback 29.503 -0.976848 3.96026
upperback 10.7831 0.269828 5.82473
thorax -4.08047 0.0920134 4.09825
lowerneck -20.8225 -0.543114 -7.3513
upperneck 24.5722 2.16574 -1.51411
head 11.4471 0.0828495 1.00877
rclavicle -2.8625e-014 1.59028e-015
rhumerus -29.469 27.9804 -79.3244
rradius 85.799
rwrist 21.3424
rhand -41.821 10.8412
rfingers 7.12502
rthumb -14.7227 -18.616
lclavicle -2.8625e-014 1.59028e-015
lhumerus -38.9307 -25.772 99.4043
lradius 92.8023
lwrist -27.8289
lhand -56.6286 22.9458
lfingers 7.12502
lthumb -28.9368 50.7204
rfemur -49.1001 -15.1753 25.3561
rtibia 48.0444
rfoot -7.99999 -1.30469
rtoes 9.00995
lfemur -92.693 14.8099 -31.7395
ltibia 133.195
lfoot -16.4423 -6.90157
ltoes -11.4064
1929
root -1.15118 16.8775 -1.3528 10.6894 0.61042 -715.627
lowerback 29.4413 -0.8966 3.83223
upperback 10.6798 0.334189 5.7739
thorax -4.17384 0.121698 4.09379
lowerneck -20.6549 -0.479103 -7.4039
upperneck 24.7245 2.28197 -1.57785
head 11.4706 0.118016 1.01233
rclavicle -4.77083e-015 2.06736e-014
rhumerus -29.6582 28.0952 -79.4546
rradius 85.3685
rwrist 22.1791
rhand -41.0684 10.5835
rfingers 7.12502
rthumb -13.9975 -18.9253
lclavicle -4.77083e-015 2.06736e-014
lhumerus -38.8298 -25.7603 99.4114
lradius 92.4429
lwrist -27.5637
lhand -56.1078 22.517
lfingers 7.12502
lthumb -28.4393 50.3758
rfemur -48.8454 -15.0447 25.2503
rtibia 47.8916
rfoot -8.21193 -1.33958
rtoes 8.25059
lfemur -92.025 14.9264 -31.5085
ltibia 132.943
lfoot -16.373 -7.35559
ltoes -11.209
1930
root -1.17619 16.9027 -1.27061 10.7354 0.454258 -715.541
lowerback 29.4106 -0.823506 3.7139
upperback 10.6518 0.387008 5.69988
thorax -4.19551 0.146275 4.06131
lowerneck -20.4632 -0.382534 -7.49865
upperneck 24.7189 2.42269 -1.55396
head 11.4257 0.177577 1.0578
rclavicle 2.54444e-014 9.54166e-015
rhumerus -29.7274 28.2594 -79.633
rradius 84.9638
rwrist 22.6825
rhand -40.8938 10.6128
rfingers 7.12502
rthumb -13.8292 -18.9075
lclavicle 2.54444e-014 9.54166e-015
lhumerus -38.4944 -25.7705 99.2459
lradius 91.972
lwrist -27.2527
lhand -55.7072 22.3633
lfingers 7.12502
lthumb -28.0563 50.2854
rfemur -48.4499 -14.8256 25.1314
rtibia 47.7178
rfoot -8.49937 -1.38974
rtoes 7.5447
lfemur -91.2412 15.1612 -31.2044
ltibia 132.685
lfoot -16.2781 -7.92148
ltoes -10.1238
1931
root -1.19996 16.9315 -1.19265 10.8084 0.261279 -715.484
lowerback 29.3279 -0.741906 3.59031
upperback 10.6686 0.444069 5.65728
thorax -4.14288 0.171987 4.06424
lowerneck -20.5233 -0.267521 -7.58673
upperneck 24.8213 2.66031 -1.67639
head 11.4721 0.255346 1.06479
rclavicle -2.70347e-014 1.59028e-015
rhumerus -29.6002 28.4985 -79.6905
rradius 84.587
rwrist 22.8656
rhand -41.3071 10.7361
rfingers 7.12502
rthumb -14.2276 -18.7565
lclavicle -2.70347e-014 1.59028e-015
lhumerus -38.0079 -25.67 99.1097
lradius 91.443
lwrist -27.0651
lhand -55.304 21.8838
lfingers 7.12502
lthumb -27.6709 49.8684
rfemur -48.0975 -14.531 25.0225
rtibia 47.5594
rfoot -8.71623 -1.43522
rtoes 7.53228
lfemur -90.4908 15.4092 -30.8997
ltibia 132.406
lfoot -16.0551 -8.39115
ltoes -9.56071
1932
root -1.21991 16.9587 -1.11735 11.0005 0.0711351 -715.373
lowerback 29.208 -0.662173 3.43383
upperback 10.5817 0.493534 5.59083
thorax -4.19029 0.194272 4.06227
lowerneck -20.755 -0.165073 -7.60393
upperneck 25.1204 2.89617 -1.83492
head 11.6295 0.324023 1.04881
rclavicle -2.38542e-014 -2.22639e-014
rhumerus -29.4892 28.7847 -79.7614
rradius 84.1351
rwrist 22.8289
rhand -41.4703 10.7072
rfingers 7.12502
rthumb -14.3849 -18.7743
lclavicle -2.38542e-014 -2.22639e-014
lhumerus -37.6237 -25.5327 99.001
lradius 90.9695
lwrist -26.8944
lhand -54.6284 21.3664
lfingers 7.12502
lthumb -27.0247 49.453
rfemur -47.9063 -14.2708 24.8888
rtibia 47.4021
rfoot -8.79352 -1.45799
rtoes 7.90946
lfemur -89.9178 15.496 -30.7221
ltibia 132.12
lfoot -15.6625 -8.75482
ltoes -9.66718
1933
root -1.23614 16.9787 -1.04712 11.2047 -0.110923 -715.159
lowerback 29.1049 -0.570473 3.18158
upperback 10.4151 0.53675 5.4791
thorax -4.33606 0.213446 4.06815
lowerneck -20.7332 -0.058257 -7.52275
upperneck 25.2932 3.08632 -2.04131
head 11.6931 0.383005 0.989674
rclavicle -2.22639e-014 6.36111e-014
rhumerus -29.4842 29.0044 -79.9708
rradius 83.611
rwrist 22.5605
rhand -41.2312 10.5254
rfingers 7.12502
rthumb -14.1544 -18.9724
lclavicle -2.22639e-014 6.36111e-014
lhumerus -37.3832 -25.4066 98.9475
lradius 90.5761
lwrist -26.5478
lhand -53.9383 20.9999
lfingers 7.12502
lthumb -26.3643 49.1872
rfemur -47.7781 -14.1197 24.6706
rtibia 47.2445
rfoot -8.83548 -1.41802
rtoes 8.40018
lfemur -89.4273 15.3558 -30.6723
ltibia 131.817
lfoot -15.2935 -9.02719
ltoes -9.47468
1934
root -1.25554 17.007 -0.972517 11.317 -0.206882 -715.009
lowerback 28.9505 -0.535011 3.01338
upperback 10.3256 0.524254 5.37035
thorax -4.36669 0.207309 4.04499
lowerneck -20.5668 0.095462 -7.39014
upperneck 25.2242 3.31721 -2.31873
head 11.6369 0.467577 0.899755
rclavicle -1.43125e-014 -2.38542e-014
rhumerus -29.3709 29.2247 -80.1817
rradius 83.0343
rwrist 22.2006
rhand -41.0802 10.6805
rfingers 7.12502
rthumb -14.0089 -18.8274
lclavicle -1.43125e-014 -2.38542e-014
lhumerus -37.0825 -25.2603 98.8267
lradius 90.2443
lwrist -26.1726
lhand -53.2373 20.5544
lfingers 7.12502
lthumb -25.6931 48.8403
rfemur -47.4782 -14.0286 24.4974
rtibia 47.0405
rfoot -9.00486 -1.37149
rtoes 8.19946
lfemur -88.7732 15.1885 -30.4628
ltibia 131.441
lfoot -15.0121 -9.40147
ltoes -10.1941
1935
root -1.27588 17.0386 -0.888201 11.4009 -0.238482 -714.989
lowerback 28.6994 -0.561029 2.96752
upperback 10.2869 0.460897 5.30243
thorax -4.29039 0.177623 4.01061
lowerneck -20.4608 0.289718 -7.25675
upperneck 25.1212 3.61622 -2.62198
head 11.5799 0.580156 0.810973
rclavicle -1.27222e-014 -3.65764e-014
rhumerus -29.1951 29.4836 -80.3627
rradius 82.4673
rwrist 21.8811
rhand -41.0445 10.6719
rfingers 7.12502
rthumb -13.9745 -18.8384
lclavicle -1.27222e-014 -3.65764e-014
lhumerus -36.7727 -24.9515 98.7043
lradius 89.911
lwrist -26.0866
lhand -52.5137 20.0266
lfingers 7.12502
lthumb -24.9998 48.4108
rfemur -47.0533 -13.9087 24.4284
rtibia 46.7666
rfoot -9.24921 -1.37361
rtoes 7.9985
lfemur -87.9125 15.1099 -30.1645
ltibia 130.999
lfoot -14.9783 -9.65397
ltoes -12.224
1936
root -1.29621 17.0683 -0.804656 11.4955 -0.284113 -715.027
lowerback 28.4706 -0.562355 2.9776
upperback 10.1889 0.445877 5.20271
thorax -4.29282 0.172881 3.89419
lowerneck -20.3731 0.441816 -6.97823
upperneck 25.1247 3.82017 -2.93967
head 11.573 0.657766 0.678981
rclavicle 1.11319e-014 -3.81667e-014
rhumerus -29.0646 29.5395 -80.6691
rradius 81.7863
rwrist 21.6572
rhand -40.6766 10.2091
rfingers 7.12502
rthumb -13.62 -19.3254
lclavicle 1.11319e-014 -3.81667e-014
lhumerus -36.5529 -24.7343 98.596
lradius 89.4961
lwrist -26.0129
lhand -51.9467 19.479
lfingers 7.12502
lthumb -24.4564 47.9378
rfemur -46.6272 -13.7301 24.4267
rtibia 46.4486
rfoot -9.48488 -1.4501
rtoes 7.63282
lfemur -87.1353 15.1116 -29.8798
ltibia 130.539
lfoot -14.9713 -9.85864
ltoes -13.7556
1937
root -1.32016 17.1026 -0.725824 11.5429 -0.266578 -715.044
lowerback 28.2931 -0.552525 2.94404
upperback 10.1022 0.437374 5.10903
thorax -4.30699 0.170635 3.8088
lowerneck -20.3391 0.562912 -6.7236
upperneck 25.1599 3.97949 -3.19781
head 11.5887 0.718847 0.566479
rclavicle -1.59028e-014 6.36111e-014
rhumerus -28.7803 29.533 -80.9287
rradius 80.9332
rwrist 21.44
rhand -40.1319 9.88067
rfingers 7.12502
rthumb -13.0949 -19.6882
lclavicle -1.59028e-014 6.36111e-014
lhumerus -36.3053 -24.6953 98.4781
lradius 89.0553
lwrist -25.817
lhand -51.4734 18.8625
lfingers 7.12502
lthumb -24.0026 47.3818
rfemur -46.1465 -13.603 24.4121
rtibia 46.1144
rfoot -9.70993 -1.57082
rtoes 7.63792
lfemur -86.4389 14.9907 -29.5094
ltibia 130.004
lfoot -14.6619 -10.3773
ltoes -13.4598
1938
root -1.343 17.1313 -0.648323 11.6512 -0.179618 -715.039
lowerback 28.0857 -0.56967 2.86945
upperback 9.99882 0.388155 5.06577
thorax -4.3239 0.147451 3.81571
lowerneck -20.4375 0.665105 -6.7267
upperneck 25.2655 4.18294 -3.33883
head 11.6506 0.784868 0.547621
rclavicle 2.06736e-014 6.52014e-014
rhumerus -28.5067 29.6422 -81.078
rradius 80.1248
rwrist 21.18
rhand -39.6556 9.66651
rfingers 7.12502
rthumb -12.6358 -19.9313
lclavicle 2.06736e-014 6.52014e-014
lhumerus -36.0033 -24.5766 98.4101
lradius 88.6478
lwrist -25.5817
lhand -50.8632 18.5446
lfingers 7.12502
lthumb -23.4174 47.1397
rfemur -45.7504 -13.4792 24.3774
rtibia 45.8072
rfoot -10.0361 -1.73719
rtoes 7.88309
lfemur -85.8986 14.6981 -29.1437
ltibia 129.417
lfoot -14.2936 -10.9898
ltoes -12.8153
